PathFileType	4	(X/Y/Z)	C:\Users\dbl\Desktop\LZH\BX\Trimmed_bx_y_10_1801.trc
DataRate	CameraRate	NumFrames	NumMarkers	Units	OrigDataRate	OrigDataStartFrame	OrigNumFrames
50.00	50.00	       8	43	mm	50.00	134	       357
Frame#	Time	Top.Head			R.Acromium			L.Acromium			Sternum			R.ASIS			L.ASIS			V.Sacral			R.Thigh.Upper			R.Thigh.Front			R.Thigh.Rear			R.Knee.Lat			R.Knee.Med			R.Shank.Upper			R.Shank.Front			R.Shank.Rear			R.Ankle.Lat			R.Midfoot.Lat			R.Toe.Lat			R.Toe.Tip			R.Toe.Med			R.Ankle.Med			R.Midfoot.Sup			R.Heel			L.Thigh.Upper			L.Thigh.Front			L.Thigh.Rear			L.Knee.Lat			L.Knee.Med			L.Shank.Upper			L.Shank.Front			L.Shank.Rear			L.Ankle.Lat			L.Midfoot.Lat			L.Toe.Lat			L.Toe.Tip			L.Toe.Med			L.Ankle.Med			L.Midfoot.Sup			L.Heel			origin1 front left			origin2 front right			origin 3 back right			origin 4 back leftt			
		X1	Y1	Z1	X2	Y2	Z2	X3	Y3	Z3	X4	Y4	Z4	X5	Y5	Z5	X6	Y6	Z6	X7	Y7	Z7	X8	Y8	Z8	X9	Y9	Z9	X10	Y10	Z10	X11	Y11	Z11	X12	Y12	Z12	X13	Y13	Z13	X14	Y14	Z14	X15	Y15	Z15	X16	Y16	Z16	X17	Y17	Z17	X18	Y18	Z18	X19	Y19	Z19	X20	Y20	Z20	X21	Y21	Z21	X22	Y22	Z22	X23	Y23	Z23	X24	Y24	Z24	X25	Y25	Z25	X26	Y26	Z26	X27	Y27	Z27	X28	Y28	Z28	X29	Y29	Z29	X30	Y30	Z30	X31	Y31	Z31	X32	Y32	Z32	X33	Y33	Z33	X34	Y34	Z34	X35	Y35	Z35	X36	Y36	Z36	X37	Y37	Z37	X38	Y38	Z38	X39	Y39	Z39	X40	Y40	Z40	X41	Y41	Z41	X42	Y42	Z42	X43	Y43	Z43	

134	2.660	-626.48090	258.34784	1840.95911	-606.36761	60.85543	1532.45044	-595.22723	453.54651	1519.30835	-510.90878	261.90298	1393.85754	-546.58716	136.70157	1055.74976	-540.71613	394.55774	1078.73022	-732.26300	245.27086	1064.05627	-578.09888	88.78877	894.02747	-530.97729	148.27425	846.62543	-630.30505	85.03488	752.80090	-650.22015	121.59911	608.04419	-631.96472	232.05338	568.06342	-687.26721	123.83665	543.00964	-601.01300	171.86807	550.04913	-727.01105	130.06789	476.20569	-687.41266	147.39027	213.89618	-618.02667	77.27774	165.83189	-572.93921	49.31688	159.16017	-492.58224	90.45476	161.37527	-531.56384	141.80719	166.39383	-630.65063	216.90578	219.06686	-590.04309	187.75391	170.79570	-713.26019	217.47447	169.70081	-571.55365	432.80399	884.42212	-525.53986	370.59210	839.83722	-619.08875	436.70328	755.92688	-649.30817	411.21036	629.46826	-618.71527	307.26938	582.46283	-657.17438	407.18051	565.69806	-606.05951	364.34393	543.98743	-710.21924	413.25955	514.55475	-679.25830	415.20227	215.08041	-585.28235	468.56445	165.74792	-546.31744	478.73236	159.51482	-487.26642	429.04480	167.79424	-524.85913	388.00000	177.49123	-642.68958	326.67535	207.21576	-594.15540	347.94958	169.12663	-732.25427	343.89349	164.42828	-443.45898	449.13736	147.05965	-450.48035	75.33023	144.66525	-806.25500	82.71597	142.49789	-799.18921	458.20081	144.54315	
135	2.680	-619.24756	258.51843	1841.55139	-604.05988	60.75642	1532.57739	-593.47461	453.27426	1519.39014	-510.12912	261.79471	1393.20752	-548.40747	137.20908	1055.66980	-542.54901	394.47348	1078.94983	-733.92798	245.30388	1064.07568	-579.60016	88.89633	894.09473	-532.42664	148.21202	846.80261	-631.63464	85.16014	752.72192	-650.96161	121.55059	607.98224	-632.04370	231.98991	568.00562	-687.69867	123.91547	542.89148	-601.44849	171.65807	550.08032	-727.34448	130.13576	475.99359	-687.44458	147.41098	213.88641	-618.02924	77.27470	165.84106	-572.95544	49.35166	159.16240	-492.61230	90.41361	161.48030	-531.58826	141.83038	166.43675	-630.86609	216.71001	218.92130	-590.06549	187.74007	170.82016	-713.30341	217.41129	169.62794	-572.80316	432.98825	884.71094	-526.60089	370.78696	840.36481	-619.97357	436.68292	756.04510	-649.72748	411.24655	629.41705	-618.76508	307.46277	582.51642	-657.27979	407.23685	565.73669	-606.10419	364.33817	544.01324	-710.31732	413.25528	514.39569	-679.18414	415.22705	215.04079	-585.22351	468.56418	165.64812	-546.31305	478.69043	159.49738	-487.33737	429.00873	167.80554	-524.80139	388.02573	177.58224	-642.55579	326.71454	207.34608	-594.15271	347.96298	169.19545	-732.29175	343.94257	164.33896	-443.44205	449.09369	147.05766	-450.48877	75.33302	144.66608	-806.25586	82.71847	142.49420	-799.19244	458.12903	144.52933	
136	2.700	-611.17615	258.60593	1842.04639	-601.38397	60.59696	1532.72314	-591.53784	453.00558	1519.43860	-509.21439	261.78558	1392.44739	-550.35480	137.72084	1055.77368	-544.66406	394.40057	1079.20789	-735.90332	245.37482	1064.10803	-581.25800	89.09219	894.17859	-533.95996	148.12291	847.09045	-633.12653	85.11402	752.79053	-651.62921	121.57608	607.87073	-632.05756	231.86913	567.89789	-688.00012	123.99786	542.73615	-601.76184	171.39243	550.02441	-727.63904	130.22485	475.79932	-687.47919	147.43329	213.87537	-618.02020	77.28050	165.83342	-572.96326	49.39295	159.18504	-492.64044	90.39528	161.61343	-531.60724	141.86874	166.47083	-630.96130	216.54570	218.89815	-590.12952	187.67921	170.78741	-713.36804	217.31270	169.53493	-574.14374	433.30069	885.13788	-527.90509	370.98236	840.98303	-620.88531	436.68057	756.20282	-650.08087	411.37543	629.41559	-618.61157	307.56827	582.63501	-657.30316	407.23911	565.71057	-606.00665	364.35706	544.06909	-710.27374	413.29688	514.25714	-679.02863	415.31000	215.05583	-585.12366	468.59683	165.42575	-546.31531	478.64896	159.47969	-487.37466	428.97849	167.81407	-524.81531	388.02637	177.59366	-642.42932	326.72455	207.40117	-594.16913	348.01425	169.17535	-732.31122	343.98868	164.27928	-443.42722	449.06467	147.04216	-450.48846	75.32944	144.65744	-806.26196	82.73722	142.49776	-799.18243	458.09885	144.52977	
137	2.720	-602.24420	258.59293	1842.39819	-598.34344	60.37838	1532.82935	-589.32837	452.77005	1519.46912	-508.19235	261.78741	1391.50232	-552.47522	138.14497	1056.05017	-546.89716	394.40805	1079.61072	-738.18817	245.50403	1064.10327	-583.07568	89.33357	894.31555	-535.54413	148.04655	847.48859	-634.64410	85.01673	752.99060	-652.15643	121.66725	607.72290	-632.00201	231.68707	567.72479	-688.18335	124.09978	542.54462	-601.88336	171.09297	549.92004	-727.81653	130.34596	475.63962	-687.51733	147.46082	213.86130	-618.00677	77.29178	165.82297	-572.95276	49.42552	159.22658	-492.66083	90.41306	161.72842	-531.61920	141.89790	166.49509	-630.90051	216.48959	219.01015	-590.26971	187.54622	170.69022	-713.43207	217.21545	169.46687	-575.60852	433.65475	885.62891	-529.45856	371.19910	841.65662	-621.89984	436.72110	756.37891	-650.34320	411.52213	629.42737	-618.23248	307.52866	582.80884	-657.21057	407.14487	565.59576	-605.75336	364.40894	544.14417	-710.04395	413.32074	514.15155	-678.84924	415.49026	215.16644	-585.00415	468.63336	165.16435	-546.31952	478.60059	159.47040	-487.38739	428.95444	167.81932	-524.89728	388.00662	177.55434	-642.32587	326.71857	207.38583	-594.12952	347.97440	169.21271	-732.32617	344.02432	164.24748	-443.43378	449.06284	147.03175	-450.48364	75.32276	144.64658	-806.26862	82.76070	142.50406	-799.17963	458.09018	144.55418	
138	2.740	-592.41077	258.49731	1842.53052	-594.93207	60.10482	1532.81714	-586.77740	452.58466	1519.49927	-507.10278	261.68814	1390.29626	-554.80579	138.36375	1056.56604	-549.15875	394.57990	1080.28418	-740.78796	245.67737	1064.08447	-585.07867	89.58447	894.54114	-537.17139	147.97473	847.99768	-636.06458	84.99545	753.21600	-652.51624	121.79139	607.56903	-631.83655	231.47615	567.48444	-688.24591	124.21189	542.34155	-601.76843	170.81741	549.87018	-727.80188	130.47804	475.50909	-687.53748	147.48212	213.84866	-617.99896	77.30596	165.82684	-572.93378	49.44339	159.27747	-492.68405	90.45744	161.78889	-531.61774	141.91896	166.52104	-630.69714	216.59238	219.22290	-590.44958	187.37842	170.56496	-713.48431	217.15506	169.44193	-577.27435	433.93002	886.10382	-531.15088	371.46112	842.37781	-623.05988	436.81439	756.55933	-650.53619	411.59546	629.41620	-617.59637	307.38577	583.02362	-656.96875	406.98413	565.42554	-605.32605	364.51617	544.22797	-709.59808	413.24017	514.05658	-678.69379	415.78027	215.40092	-584.90228	468.63376	164.99687	-546.31714	478.54880	159.48460	-487.38467	428.94302	167.82451	-524.98718	387.97778	177.51099	-642.23926	326.72797	207.35460	-594.04968	347.89581	169.25208	-732.35052	344.05176	164.22087	-443.45764	449.08661	147.03860	-450.47467	75.31799	144.64482	-806.27600	82.77524	142.50629	-799.20782	458.05875	144.59953	
139	2.760	-581.62408	258.36743	1842.34900	-591.11383	59.79431	1532.63171	-583.82178	452.42145	1519.49792	-505.93613	261.44067	1388.77979	-557.39301	138.32051	1057.37830	-551.58868	394.87445	1081.20703	-743.72162	245.84224	1064.11353	-587.30743	89.83375	894.86798	-538.86273	147.86189	848.61957	-637.36835	85.07697	753.35712	-652.67523	121.87921	607.45050	-631.50909	231.29498	567.19745	-688.13574	124.33076	542.14319	-601.37317	170.60689	549.97205	-727.56494	130.58081	475.39197	-687.51758	147.48074	213.83749	-617.99518	77.33054	165.84703	-572.91571	49.45412	159.33549	-492.71368	90.52089	161.78043	-531.60260	141.95174	166.55521	-630.48456	216.76146	219.37379	-590.57703	187.25928	170.47217	-713.53235	217.13942	169.43489	-579.22632	434.10138	886.56720	-532.88977	371.74652	843.15411	-624.34027	436.97696	756.78473	-650.67212	411.57074	629.38007	-616.68384	307.27209	583.24023	-656.55096	406.85944	565.28918	-604.67676	364.69296	544.30304	-708.93628	412.99185	513.92133	-678.55920	416.10944	215.70149	-584.84338	468.58856	164.96971	-546.30463	478.50833	159.52721	-487.37448	428.94528	167.83952	-525.03705	387.95184	177.48952	-642.13757	326.77151	207.33972	-593.97803	347.89120	169.18297	-732.37537	344.07599	164.18289	-443.47485	449.11206	147.05127	-450.44952	75.32537	144.66370	-806.28418	82.77187	142.50252	-799.25702	458.00781	144.64212	
140	2.780	-569.85541	258.22754	1841.77783	-586.84802	59.49466	1532.23438	-580.39362	452.17459	1519.37659	-504.63907	261.10126	1386.94409	-560.30853	138.10771	1058.39832	-554.53052	395.13113	1082.14661	-747.03436	245.92831	1064.21143	-589.80676	90.04442	895.29761	-540.73657	147.70593	849.33850	-638.63818	85.23953	753.38269	-652.62317	121.85133	607.38477	-630.96259	231.15543	566.90173	-687.76031	124.46559	541.92804	-600.67090	170.45012	550.25616	-727.11438	130.63391	475.26947	-687.47644	147.45842	213.81728	-617.98053	77.38055	165.87482	-572.89612	49.47359	159.40298	-492.73434	90.59917	161.72339	-531.58203	141.99280	166.58571	-630.42914	216.83708	219.28062	-590.56451	187.26877	170.46751	-713.58856	217.15675	169.40924	-581.50256	434.22342	887.07874	-534.73126	372.00491	844.01965	-625.66833	437.21533	757.12671	-650.68945	411.48691	629.33154	-615.48718	307.30753	583.40179	-655.90814	406.81250	565.24530	-603.73816	364.91357	544.34320	-708.06635	412.59207	513.72382	-678.42041	416.35291	215.93506	-584.82544	468.52313	165.01895	-546.28717	478.48340	159.58333	-487.37656	428.95169	167.86856	-525.04736	387.93405	177.49031	-641.98907	326.82889	207.31209	-593.92603	347.97861	169.01010	-732.37982	344.09042	164.14095	-443.47256	449.11310	147.04694	-450.39508	75.35240	144.69821	-806.28815	82.74667	142.50298	-799.28357	457.97916	144.65012	
141	2.800	-557.12335	258.04517	1840.75867	-582.11206	59.23517	1531.57300	-576.44934	451.76248	1519.03345	-503.14621	260.78506	1384.81177	-563.68536	137.95052	1059.35510	-558.35980	395.17953	1082.80103	-750.80603	245.89780	1064.35986	-592.61133	90.15627	895.82092	-542.94904	147.56236	850.15723	-640.02368	85.41023	753.37683	-652.39154	121.66860	607.34473	-630.10461	230.97469	566.64948	-687.04407	124.58742	541.68329	-599.67462	170.27524	550.68579	-726.44800	130.63846	475.15033	-687.47638	147.43407	213.77730	-617.93744	77.46359	165.90388	-572.87274	49.51136	159.47307	-492.73630	90.66444	161.67580	-531.56097	142.01837	166.59581	-630.56036	216.77661	218.93622	-590.41071	187.41568	170.56255	-713.66229	217.17700	169.35054	-584.08325	434.33990	887.68433	-536.77521	372.20410	845.03455	-626.95563	437.48712	757.59827	-650.46973	411.39050	629.26581	-613.94147	307.48453	583.49896	-654.94952	406.78491	565.26099	-602.40948	365.13782	544.33679	-706.95093	412.13223	513.51233	-678.28375	416.44678	216.01866	-584.82544	468.46350	165.07553	-546.27472	478.46149	159.62457	-487.40494	428.95508	167.90407	-525.03937	387.93195	177.50223	-641.80060	326.85272	207.20552	-593.89325	348.11438	168.79234	-732.36255	344.08743	164.11182	-443.45834	449.08521	147.01929	-450.31912	75.40221	144.72304	-806.28735	82.70730	142.51611	-799.26874	457.98715	144.62221	
